Coordinates
version=1
nRows=21
nColumns=22
inDegrees=yes

Units are S.I. units (second, meters, Newtons, ...)
If the header above contains a line with 'inDegrees', this indicates whether rotational values are in degrees (yes) or radians (no).

endheader
time	pelvis_tilt	pelvis_list	pelvis_rotation	pelvis_tx	pelvis_ty	pelvis_tz	hip_flexion_r	hip_adduction_r	hip_rotation_r	knee_angle_r	ankle_angle_r	subtalar_angle_r	hip_flexion_l	hip_adduction_l	hip_rotation_l	knee_angle_l	ankle_angle_l	subtalar_angle_l	lumbar_extension	lumbar_bending	lumbar_rotation
      1.21000000	      2.40040281	     -0.54609997	     -4.41087528	     -1.28825501	      0.93907647	      0.02922787	     -3.01682765	      1.94637609	      3.05708630	     -8.88773830	      6.76632814	     -0.08593564	     -3.00110974	     -2.12030485	     -9.20511366	    -10.55572704	      8.35611657	      2.46571788	     -5.23834762	     -1.80308588	      0.80746912
      1.22000000	      2.34518905	     -0.51237476	     -4.36741178	     -1.28747538	      0.93890511	      0.02947488	     -2.94617699	      1.94122755	      2.99188638	     -9.02057158	      6.89951916	     -0.12867829	     -3.02077090	     -2.10554470	     -9.14972792	    -10.49474387	      8.38137389	      2.51498572	     -5.20001927	     -1.82600900	      0.75952591
      1.23000000	      2.25753326	     -0.45868828	     -4.31392278	     -1.28669128	      0.93868021	      0.02971299	     -2.82785321	      1.92003316	      2.92205191	     -9.17778940	      7.04923243	     -0.22068131	     -2.99270721	     -2.07514014	     -9.10103973	    -10.45241714	      8.39084815	      2.58950751	     -5.12368595	     -1.86948827	      0.68350125
      1.24000000	      2.19216260	     -0.43084447	     -4.28457989	     -1.28586780	      0.93848094	      0.02999971	     -2.72631919	      1.92704078	      2.88133204	     -9.35615184	      7.18665823	     -0.27656170	     -3.02004860	     -2.06686214	     -9.04681743	    -10.36698879	      8.43276002	      2.62953285	     -5.07330314	     -1.88556028	      0.66297810
      1.25000000	      2.10514931	     -0.38021597	     -4.24906335	     -1.28503412	      0.93824239	      0.03029419	     -2.58261965	      1.91464939	      2.82520546	     -9.57132823	      7.35624884	     -0.36235742	     -3.01899667	     -2.03801389	     -8.99760616	    -10.28757980	      8.45732907	      2.68751144	     -4.99743210	     -1.92814637	      0.61208412
      1.26000000	      1.96892732	     -0.30848040	     -4.20851384	     -1.28420134	      0.93792797	      0.03062242	     -2.37311899	      1.88774848	      2.76234885	     -9.80909194	      7.54803363	     -0.51554971	     -2.94610718	     -1.99730458	     -8.96323971	    -10.24008617	      8.46539704	      2.77825303	     -4.86285806	     -1.99708680	      0.52820605
      1.27000000	      1.85281364	     -0.25399356	     -4.17764544	     -1.28334847	      0.93763783	      0.03097679	     -2.17378018	      1.87921578	      2.71088637	    -10.07330824	      7.72877004	     -0.63570933	     -2.91665022	     -1.97071108	     -8.92661629	    -10.15840152	      8.49683376	      2.85084721	     -4.75644996	     -2.04411758	      0.48168350
      1.28000000	      1.72029924	     -0.19462179	     -4.15506247	     -1.28248766	      0.93732129	      0.03141566	     -1.94263066	      1.87227287	      2.65354976	    -10.36488272	      7.91090000	     -0.76857499	     -2.86663138	     -1.94620893	     -8.88599687	    -10.08582962	      8.51731416	      2.93117466	     -4.63072373	     -2.10767473	      0.43040871
      1.29000000	      1.59691681	     -0.12858703	     -4.13066593	     -1.28157802	      0.93700781	      0.03187691	     -1.72341284	      1.85791847	      2.59592925	    -10.65868208	      8.11333562	     -0.87723981	     -2.83581091	     -1.91381906	     -8.85568711	    -10.00000967	      8.54675948	      3.00423003	     -4.51380846	     -2.17927730	      0.37849355
      1.30000000	      1.46247744	     -0.06122410	     -4.10725425	     -1.28064680	      0.93667084	      0.03239603	     -1.48969533	      1.84613300	      2.54069187	    -10.96170641	      8.31452833	     -0.99324677	     -2.79019310	     -1.88564875	     -8.82136481	     -9.92364275	      8.57803861	      3.07991350	     -4.38527988	     -2.25546812	      0.32920036
      1.31000000	      1.32612250	      0.00415413	     -4.08400444	     -1.27967893	      0.93632373	      0.03297374	     -1.26115569	      1.84012197	      2.49124924	    -11.25694557	      8.51362677	     -1.10977270	     -2.73947715	     -1.86413259	     -8.78535619	     -9.85979755	      8.61798327	      3.15276606	     -4.25459766	     -2.33533724	      0.28069320
      1.32000000	      1.18896650	      0.06856230	     -4.05724533	     -1.27866703	      0.93596562	      0.03359801	     -1.04029812	      1.83776860	      2.44393291	    -11.54334976	      8.71934485	     -1.22516355	     -2.68561795	     -1.84796923	     -8.74267857	     -9.80757059	      8.67186087	      3.22156866	     -4.12261866	     -2.41580098	      0.23366703
      1.33000000	      1.04821020	      0.12959129	     -4.02259937	     -1.27761130	      0.93559753	      0.03425849	     -0.83240671	      1.84103378	      2.40274348	    -11.80522275	      8.91833466	     -1.34427039	     -2.61600013	     -1.84075981	     -8.69797681	     -9.78327624	      8.73650271	      3.28530505	     -3.98686227	     -2.49508625	      0.18123122
      1.34000000	      0.90504345	      0.18610632	     -3.97982663	     -1.27650181	      0.93521789	      0.03494626	     -0.63675925	      1.85127715	      2.36152514	    -12.04868298	      9.12170965	     -1.46782961	     -2.53277592	     -1.84172404	     -8.64566182	     -9.78737613	      8.82014986	      3.34308437	     -3.84743194	     -2.56783036	      0.13438845
      1.35000000	      0.76024246	      0.23406079	     -3.93102520	     -1.27533616	      0.93483074	      0.03566708	     -0.45680766	      1.87213485	      2.32367327	    -12.26841305	      9.31722712	     -1.59697221	     -2.43356034	     -1.85627471	     -8.59019179	     -9.82722059	      8.92151306	      3.39212121	     -3.70584765	     -2.63127850	      0.08835629
      1.36000000	      0.62163592	      0.26945017	     -3.87905831	     -1.27412323	      0.93444714	      0.03644071	     -0.30196369	      1.90895127	      2.29151106	    -12.46008737	      9.50010161	     -1.72155000	     -2.32630965	     -1.88897010	     -8.53198399	     -9.90403040	      9.04342157	      3.42880349	     -3.57464769	     -2.68415972	      0.04771402
      1.37000000	      0.52027856	      0.27938730	     -3.83136422	     -1.27280011	      0.93410795	      0.03726077	     -0.22319527	      1.97042184	      2.27345683	    -12.60064304	      9.68409197	     -1.79486796	     -2.26694137	     -1.94655169	     -8.46070978	     -9.98501523	      9.19780547	      3.44682798	     -3.48000031	     -2.70742189	      0.04012678
      1.38000000	      0.39688063	      0.28198158	     -3.77089775	     -1.27148924	      0.93372490	      0.03812612	     -0.12318868	      2.04518533	      2.25191363	    -12.73901090	      9.85190695	     -1.89539904	     -2.12558963	     -2.02506844	     -8.39408367	    -10.17759033	      9.37731033	      3.46307794	     -3.37055781	     -2.72307663	      0.00889015
      1.39000000	      0.27081760	      0.26238703	     -3.71657729	     -1.27013591	      0.93332934	      0.03906859	     -0.04110494	      2.14669572	      2.24201237	    -12.84417612	      9.98408646	     -1.99168270	     -1.95311980	     -2.13497509	     -8.32353591	    -10.43526733	      9.57663478	      3.46966906	     -3.26037799	     -2.71575651	      0.00182906
      1.40000000	      0.09398317	      0.22614319	     -3.67134342	     -1.26876627	      0.93284923	      0.04008792	      0.09172217	      2.27102603	      2.21320834	    -12.94196266	     10.05617926	     -2.12167461	     -1.68092735	     -2.27489842	     -8.24785203	    -10.78718908	      9.79446269	      3.47040905	     -3.09420825	     -2.68822769	      0.03614830
      1.41000000	     -0.01241849	      0.15682669	     -3.62685167	     -1.26733186	      0.93242841	      0.04118082	      0.11659769	      2.43004268	      2.21413364	    -12.99549832	     10.17621496	     -2.17978546	     -1.45408434	     -2.45310224	     -8.16174802	    -11.21049032	     10.07343614	      3.46374228	     -3.01611392	     -2.62863609	      0.07478247
